<svg xmlns="http://www.w3.org/2000/svg" viewBox="0 0 256.52 212.28"><defs><style>.cls-1,.cls-13{fill:#ba7e50;}.cls-1,.cls-11,.cls-13,.cls-2,.cls-4,.cls-7,.cls-8{stroke:#231f20;stroke-width:4px;}.cls-1,.cls-2,.cls-4,.cls-7{stroke-miterlimit:10;}.cls-2{fill:#ecc440;}.cls-3{fill:#c39135;}.cls-4{fill:#d79459;}.cls-5{fill:#a78b3f;}.cls-6{fill:#231f20;}.cls-7{fill:#29b473;}.cls-11,.cls-8{fill:#ec1c24;}.cls-8{stroke-miterlimit:10;}.cls-9{fill:#931b21;}.cls-10{fill:#faaf40;}.cls-11{stroke-miterlimit:10;}.cls-12{fill:#b5714f;}.cls-13{stroke-miterlimit:10;}.cls-14{fill:#fff;}</style></defs><title>Asset 2</title><g id="Layer_2" data-name="Layer 2"><g id="Layer_1-2" data-name="Layer 1"><g id="Layer_1-2-2" data-name="Layer 1-2"><path class="cls-1" d="M43.23,163.07s116-22.69,142.56-14.28,59.87-1.73,59.87-1.73l-31.58-34.41L111,80.35,37,68.34,24.81,121.7Z"/><path class="cls-2" d="M56.13,148.26s20.52-9.56,29.69-3.53,8.39,5.14,5.64,15.85,17.44,19.54,18.37,4.95,5.2-29.8,14.91-25.83,10.79,13.25,8.34,25.65,17.91,18.73,17.64,3.23,11.37-42,24.25-35.7-1.95,11.18,2.1,19.39,14.66,11,13.36-1.23,6.62-25.95,14.46-12,7,52.78,2.46,59.6,10.05,18.23,15.74,6.88-5.56-36.78,2-45.5,19.48.42,26.35-3.33.55-21.73-4.2-32.08-75.2-90.65-163-100.48C84.31,24.08,5.37,58.35,56.13,148.26Z"/><path class="cls-3" d="M59.17,125.44S48.24,82.13,66.89,58.27,95.52,26,95.52,26l-18.61-.45L35.1,73.77l4.16,44.12,6.09,9.92Z"/><path class="cls-4" d="M23.14,165.68s-40.2-55.61-9.72-108.9,67.9-58.71,79.16-53,7.76,17.24-7.2,26.33S20.87,79,53.66,138.06l-1.23,19.46Z"/><path class="cls-5" d="M49.72,128.45A162.72,162.72,0,0,0,57.92,145s19.21-8.4,28.37-2.37,9.64,6.2,6.89,16.91,14.4,18.37,15.32,3.78S116.17,134,125.88,138s12.64,13.74,10.2,26.14,12.4,16.28,12.13.78S162.1,125,175.32,130.54c14.29,5.94-.65,12.65,3.39,20.87s12.09,7.89,10.79-4.33,9.07-23.14,16.91-9.24,7.23,52.92,2.65,59.74,9,15.5,12.44,5.09c4-12.06-5.22-36.49,2.39-45.21s20.4-1.59,27.28-5.34c1.53-.83,4.45,1.14,4.83-.87-5-3.32-8.61-5.2-8.61-5.2C193.08,107.84,77.53,123.45,49.72,128.45Z"/><path class="cls-6" d="M48.44,124.33s44.65-6.06,76.65-4.56l-75.37,8.68Z"/><path class="cls-6" d="M165.91,122.06s55.12-4.72,88.73,27c0,0,2.1,7.46-1.43,6.6C253.21,155.63,237.7,127.86,165.91,122.06Z"/><path class="cls-5" d="M107.31,100.88s3.31-11,15.47-10.26,14,7.41,14,7.41l5.69,1.07S124.67,115.89,107.31,100.88Z"/><path class="cls-7" d="M106.12,97.39S113,80.85,123.23,83.84a64.54,64.54,0,0,1,17,7.59s-8.84,11.46-18.17,10.39a53.73,53.73,0,0,1-13.15-3.24C107.11,97.9,106.12,97.39,106.12,97.39Z"/><path class="cls-6" d="M124.15,93.85s-10.29-3.2-17.06.84l-1,2.69,4.76,2S116.22,93.24,124.15,93.85Z"/><path class="cls-5" d="M58.39,97.86s3.31-11,15.47-10.26,14,7.41,14,7.41l5.69,1.07S75.75,112.87,58.39,97.86Z"/><path class="cls-7" d="M86.32,85.65s-4,17.46-14.6,16.27a64.17,64.17,0,0,1-18-4.59S60.52,84.53,69.9,84a53.64,53.64,0,0,1,13.5,1C85.25,85.32,86.32,85.65,86.32,85.65Z"/><path class="cls-6" d="M69.14,92.21S79.81,93.6,85.8,88.47l.51-2.82-5-1.19S77.05,91.46,69.14,92.21Z"/><path class="cls-5" d="M136.37,58.06s2.6-8.66,12.13-8,11,5.8,11,5.8l4.46.84S150,69.83,136.37,58.06Z"/><path class="cls-7" d="M135.44,55.32s5.36-13,13.41-10.62a50.34,50.34,0,0,1,13.3,5.95s-6.92,9-14.24,8.15a42.16,42.16,0,0,1-10.31-2.54C136.23,55.72,135.44,55.32,135.44,55.32Z"/><path class="cls-6" d="M149.58,52.55s-8.07-2.5-13.38.67l-.76,2.11,3.74,1.59S143.36,52.07,149.58,52.55Z"/><path class="cls-7" d="M219.19,115.71s5.36-13,13.41-10.62a50.34,50.34,0,0,1,13.3,6s-6.92,9-14.24,8.15a42.16,42.16,0,0,1-10.31-2.54C220,116.11,219.19,115.71,219.19,115.71Z"/><path class="cls-6" d="M233.33,112.94s-8.07-2.5-13.38.66l-.76,2.12,3.74,1.59S227.11,112.46,233.33,112.94Z"/><path class="cls-7" d="M215.72,112.89s-8-11.5-1.74-17.12a50.77,50.77,0,0,1,12.09-8.16s3.83,10.71-.79,16.5a43,43,0,0,1-7.63,7.44C216.47,112.44,215.72,112.89,215.72,112.89Z"/><path class="cls-6" d="M220.94,99.35s-6.41,5.54-6.59,11.76l1.37,1.78,3.33-2.33S217.22,104.4,220.94,99.35Z"/><ellipse class="cls-8" cx="176.56" cy="94.56" rx="19.48" ry="23.02" transform="translate(-17.6 143.72) rotate(-42.38)"/><ellipse class="cls-8" cx="178.66" cy="90.28" rx="19.48" ry="23.02" transform="translate(-14.17 144.02) rotate(-42.38)"/><path class="cls-9" d="M161.14,89.27c1,9.3,9.25,17.31,18.37,17.9L175.79,73.5C166.67,72.91,160.11,80,161.14,89.27Z"/><path class="cls-10" d="M167,89.93a1.89,1.89,0,0,1-2.64-.23A2.55,2.55,0,0,1,167,89.93Z"/><path class="cls-10" d="M168.74,94.07a1.75,1.75,0,0,1-2.54.28A2.3,2.3,0,0,1,168.74,94.07Z"/><path class="cls-10" d="M171.45,97.31s-.63,1.89-2.18,1.11A2.09,2.09,0,0,1,171.45,97.31Z"/><path class="cls-10" d="M174.32,99.8s.84,2.08-.66,2.44A2.38,2.38,0,0,1,174.32,99.8Z"/><path class="cls-10" d="M167.84,85.94s-1.58-1.67-2.64-.61A2.88,2.88,0,0,0,167.84,85.94Z"/><path class="cls-10" d="M169.87,83s-1.05-2-2.45-1.41A3.2,3.2,0,0,0,169.87,83Z"/><path class="cls-10" d="M172.23,80.85s.4-2-1.22-2.56A3.1,3.1,0,0,0,172.23,80.85Z"/><path class="cls-9" d="M196.14,91.52c-1-9.3-9.25-17.31-18.37-17.9l3.72,33.68C190.61,107.88,197.17,100.82,196.14,91.52Z"/><path class="cls-10" d="M190.56,91.89a1.87,1.87,0,0,1,2.63.23A2.53,2.53,0,0,1,190.56,91.89Z"/><path class="cls-10" d="M188.82,87.75a1.74,1.74,0,0,1,2.54-.28A2.31,2.31,0,0,1,188.82,87.75Z"/><path class="cls-10" d="M186.1,84.51s.63-1.89,2.18-1.11A2.09,2.09,0,0,1,186.1,84.51Z"/><path class="cls-10" d="M183.23,82s-.84-2.08.67-2.44A2.37,2.37,0,0,1,183.23,82Z"/><path class="cls-10" d="M189.71,95.88s1.58,1.66,2.64.61A2.86,2.86,0,0,0,189.71,95.88Z"/><path class="cls-10" d="M187.68,98.81s1.06,2,2.45,1.41A3.2,3.2,0,0,0,187.68,98.81Z"/><path class="cls-10" d="M185.32,101s-.39,2,1.22,2.56A3.09,3.09,0,0,0,185.32,101Z"/><ellipse class="cls-11" cx="100.36" cy="57.84" rx="19.52" ry="22.98" transform="translate(-3.82 108.48) rotate(-55.88)"/><ellipse class="cls-11" cx="102.11" cy="53.72" rx="19.52" ry="22.98" transform="translate(0.36 108.12) rotate(-55.88)"/><path class="cls-9" d="M84.83,56.83c3.14,8.81,13,14.68,22,13.12L95.46,38.06C86.45,39.62,81.7,48,84.83,56.83Z"/><path class="cls-10" d="M90.68,56.11a1.88,1.88,0,0,1-2.61.39A2.52,2.52,0,0,1,90.68,56.11Z"/><path class="cls-10" d="M93.32,59.72a1.74,1.74,0,0,1-2.41.87A2.36,2.36,0,0,1,93.32,59.72Z"/><path class="cls-10" d="M96.71,62.24s-.18,2-1.87,1.59A2.13,2.13,0,0,1,96.71,62.24Z"/><path class="cls-10" d="M100.08,64s1.29,1.83-.09,2.53A2.38,2.38,0,0,1,100.08,64Z"/><path class="cls-10" d="M90.58,52s-1.91-1.26-2.7,0A2.84,2.84,0,0,0,90.58,52Z"/><path class="cls-10" d="M91.89,48.7s-1.49-1.7-2.71-.8A3.18,3.18,0,0,0,91.89,48.7Z"/><path class="cls-10" d="M93.69,46.05s-.08-2-1.78-2.21A3.1,3.1,0,0,0,93.69,46.05Z"/><path class="cls-9" d="M119.4,50.83c-3.14-8.8-13-14.68-22-13.11l11.36,31.89C117.78,68.05,122.53,59.65,119.4,50.83Z"/><path class="cls-10" d="M114.05,52.5a1.89,1.89,0,0,1,2.62-.4A2.52,2.52,0,0,1,114.05,52.5Z"/><path class="cls-10" d="M111.41,48.88a1.73,1.73,0,0,1,2.4-.86A2.31,2.31,0,0,1,111.41,48.88Z"/><path class="cls-10" d="M108,46.37s.17-2,1.86-1.59A2.11,2.11,0,0,1,108,46.37Z"/><path class="cls-10" d="M104.65,44.61s-1.29-1.82.09-2.52A2.37,2.37,0,0,1,104.65,44.61Z"/><path class="cls-10" d="M114.15,56.58s1.91,1.25,2.7,0A2.85,2.85,0,0,0,114.15,56.58Z"/><path class="cls-10" d="M112.84,59.91s1.49,1.7,2.71.79A3.19,3.19,0,0,0,112.84,59.91Z"/><path class="cls-10" d="M111,62.56s.08,2,1.78,2.2A3.1,3.1,0,0,0,111,62.56Z"/><path class="cls-12" d="M91.83,6.23c-3.28-1.67-9.09-2-16-.84-.8,8.55-2.73,18.06-11.61,24.24C47.74,41.13,12,76.51,26.93,116l5.94,12.23s7.56,3.42-18.06,17.44c1.67,14.11,12,19.39,12,19.39l25.52-5.85.46-18.79C20,81.35,65.26,39.76,80.22,30.68S103.09,12,91.83,6.23Z"/><ellipse class="cls-13" cx="40.87" cy="156.5" rx="19.02" ry="13.31" transform="translate(-83.95 53.62) rotate(-35.87)"/><ellipse class="cls-3" cx="67.22" cy="71.24" rx="2.77" ry="3.75" transform="translate(-8.28 133.65) rotate(-86.24)"/><ellipse class="cls-3" cx="73.43" cy="74.32" rx="1.36" ry="1" transform="translate(-27.05 45.71) rotate(-29.45)"/><path class="cls-3" d="M117.93,78.15a1.23,1.23,0,0,1-.71,1.53,1.2,1.2,0,0,1-1.66-.22,1.23,1.23,0,0,1,.71-1.54A1.2,1.2,0,0,1,117.93,78.15Z"/><ellipse class="cls-3" cx="97.85" cy="113.2" rx="1.36" ry="1" transform="translate(-43.02 62.74) rotate(-29.45)"/><path class="cls-3" d="M135.43,107.61a1.23,1.23,0,0,1-.71,1.53,1.19,1.19,0,0,1-1.66-.22,1.22,1.22,0,0,1,.71-1.53A1.19,1.19,0,0,1,135.43,107.61Z"/><path class="cls-3" d="M155.49,114.71a1.22,1.22,0,0,1-.71,1.53,1.19,1.19,0,0,1-1.66-.22,1.22,1.22,0,0,1,.71-1.53A1.2,1.2,0,0,1,155.49,114.71Z"/><path class="cls-3" d="M199.94,112.11a1.23,1.23,0,0,1-.71,1.53,1.19,1.19,0,0,1-1.66-.22,1.22,1.22,0,0,1,.71-1.53A1.19,1.19,0,0,1,199.94,112.11Z"/><ellipse class="cls-3" cx="143.82" cy="80.26" rx="1.36" ry="1" transform="translate(-20.88 81.09) rotate(-29.45)"/><ellipse class="cls-3" cx="142.67" cy="71.2" rx="2.77" ry="3.75" transform="translate(62.81 209.21) rotate(-86.47)"/><ellipse class="cls-3" cx="146.33" cy="105.38" rx="2.77" ry="3.75" transform="translate(31.58 244.49) rotate(-86.24)"/><ellipse class="cls-3" cx="122.62" cy="75.72" rx="2.77" ry="3.75" transform="translate(39.02 193.11) rotate(-86.24)"/><ellipse class="cls-3" cx="205.23" cy="115.35" rx="2.77" ry="3.75" transform="translate(77.44 313.08) rotate(-86.47)"/><ellipse class="cls-3" cx="205.71" cy="93.61" rx="2.77" ry="3.75" transform="translate(98.82 292.74) rotate(-86.24)"/><ellipse class="cls-3" cx="123.46" cy="40.69" rx="2.77" ry="3.75" transform="translate(74.77 161.21) rotate(-86.24)"/><path class="cls-14" d="M18.39,53.63S34.24,18.52,69.48,6.5C69.48,6.5,37.21,26.53,18.39,53.63Z"/><path class="cls-6" d="M22.18,130s6.69-10,11.34-10.62C33.52,119.38,26.63,128,22.18,130Z"/><path class="cls-6" d="M19.29,125.45s6.69-10,11.35-10.62C30.64,114.83,23.75,123.41,19.29,125.45Z"/><path class="cls-6" d="M85.28,112.82s6.69-10,11.35-10.62C96.63,102.2,89.74,110.77,85.28,112.82Z"/></g></g></g></svg>