<svg xmlns="http://www.w3.org/2000/svg" viewBox="0 0 1954.53 1603.78"><defs><style>.cls-1{fill:#ba7e50;}.cls-1,.cls-2,.cls-4,.cls-7,.cls-8{stroke:#231f20;stroke-miterlimit:10;}.cls-1,.cls-2,.cls-4,.cls-7{stroke-width:30px;}.cls-2{fill:#ecc440;}.cls-3{fill:#c39135;}.cls-4{fill:#d79459;}.cls-5{fill:#a78b3f;}.cls-6{fill:#231f20;}.cls-7{fill:#29b473;}.cls-8{fill:#ec1c24;stroke-width:20px;}.cls-9{fill:#931b21;}.cls-10{fill:#faaf40;}.cls-11{fill:#b5714f;}.cls-12{fill:#fff;}</style></defs><title>Asset 1</title><g id="Layer_2" data-name="Layer 2"><g id="Layer_1-2" data-name="Layer 1"><path class="cls-1" d="M329.19,1232.06s884-171.4,1086.57-107.87,456.33-13.09,456.33-13.09l-240.7-260L845.61,607,282,516.29,188.85,919.45Z"/><path class="cls-2" d="M427.54,1120.2s156.43-72.27,226.28-26.7,63.94,38.87,43,119.78,132.92,147.64,140,37.38,39.66-225.2,113.66-195.18,82.18,100.13,63.56,193.83,136.47,141.54,134.45,24.38,86.64-317.1,184.83-269.72-14.87,84.45,16,146.51,111.74,83,101.81-9.32,50.45-196.05,110.18-91,53.66,398.8,18.74,450.34,76.62,137.73,120,51.94-42.39-277.89,15.59-343.78,148.46,3.14,200.87-25.15,4.14-164.21-32-242.43S1311.33,256.1,642.34,181.83C642.34,181.83,40.68,440.8,427.54,1120.2Z"/><path class="cls-3" d="M450.68,947.73s-83.3-327.26,58.87-507.58S727.72,196.49,727.72,196.49L585.9,193.13,267.25,557.27,299,890.71l46.36,74.92Z"/><path class="cls-4" d="M176.09,1251.83S-130.31,831.63,102,428.9,619.54-14.7,705.34,28.73s59.17,130.3-54.86,199S158.79,597,408.71,1043.12l-9.37,147Z"/><path class="cls-5" d="M378.67,970.48a1220.85,1220.85,0,0,0,62.53,125.33s146.39-63.42,216.24-17.85,73.46,46.82,52.49,127.72,109.76,138.83,116.79,28.57,58.43-221.91,132.43-191.89,96.36,103.77,77.73,197.48,94.5,123.05,92.47,5.89,105.83-301,206.63-259.48c108.91,44.9-5,95.63,25.8,157.69s92.15,59.65,82.22-32.71,69.14-174.84,128.87-69.81,55.12,399.91,20.21,451.45,68.37,117.11,94.82,38.45c30.63-91.15-39.77-275.78,18.2-341.67s155.5-12,207.92-40.32c11.68-6.3,33.92,8.59,36.84-6.58-38.14-25.07-65.63-39.25-65.63-39.25C1471.3,814.76,590.62,932.68,378.67,970.48Z"/><path class="cls-6" d="M368.93,939.37s340.33-45.79,584.22-34.46L378.67,970.48Z"/><path class="cls-6" d="M1264.26,922.21S1684.36,886.5,1940.5,1126c0,0,16,56.38-10.91,49.86C1929.59,1175.88,1811.42,966,1264.26,922.21Z"/><path class="cls-5" d="M817.6,762.18s25.25-83.45,117.91-77.54,106.74,56,106.74,56l43.34,8.08S949.91,875.61,817.6,762.18Z"/><path class="cls-7" d="M808.54,735.78s52.09-125,130.38-102.4,129.28,57.36,129.28,57.36-67.34,86.58-138.47,78.5a413.79,413.79,0,0,1-100.2-24.46C816.1,739.62,808.54,735.78,808.54,735.78Z"/><path class="cls-6" d="M945.94,709s-78.4-24.13-130,6.37l-7.4,20.37,36.31,15.39S885.49,704.44,945.94,709Z"/><path class="cls-5" d="M444.79,739.34S470,655.89,562.7,661.8s106.74,56,106.74,56l43.34,8.08S577.11,852.77,444.79,739.34Z"/><path class="cls-7" d="M657.6,647.08S627.35,779,546.38,770,409.26,735.3,409.26,735.3,461,638.61,532.5,634.56a413.27,413.27,0,0,1,102.89,7.2C649.5,644.58,657.6,647.08,657.6,647.08Z"/><path class="cls-6" d="M526.69,696.63s81.34,10.55,127-28.22l3.86-21.33-38.39-9S587,691,526.69,696.63Z"/><path class="cls-5" d="M1039.12,438.62s19.81-65.43,92.46-60.8,83.69,43.89,83.69,43.89l34,6.34S1142.87,527.56,1039.12,438.62Z"/><path class="cls-7" d="M1032,417.92s40.85-98,102.23-80.29,101.37,45,101.37,45-52.8,67.89-108.57,61.56A324.89,324.89,0,0,1,1048.48,425C1038,420.93,1032,417.92,1032,417.92Z"/><path class="cls-6" d="M1139.75,397s-61.47-18.92-101.92,5l-5.81,16L1060.5,430S1092.36,393.34,1139.75,397Z"/><path class="cls-7" d="M1670.32,874.25s40.85-98,102.23-80.29,101.37,45,101.37,45-52.8,67.89-108.57,61.56a324.34,324.34,0,0,1-78.57-19.19C1676.25,877.26,1670.32,874.25,1670.32,874.25Z"/><path class="cls-6" d="M1778.05,853.28s-61.47-18.92-101.92,5l-5.81,16,28.48,12.06S1730.66,849.67,1778.05,853.28Z"/><path class="cls-7" d="M1643.84,852.89s-61-86.86-13.27-129.31,92.17-61.67,92.17-61.67,29.18,80.9-6,124.67a324.73,324.73,0,0,1-58.18,56.17C1649.55,849.49,1643.84,852.89,1643.84,852.89Z"/><path class="cls-6" d="M1683.66,750.62s-48.83,41.86-50.22,88.84l10.4,13.43,25.41-17.62S1655.3,788.76,1683.66,750.62Z"/><ellipse class="cls-8" cx="1345.37" cy="714.35" rx="147.87" ry="174.66" transform="translate(-119.57 1131.79) rotate(-43.87)"/><ellipse class="cls-8" cx="1361.42" cy="682.04" rx="147.87" ry="174.66" transform="translate(-92.7 1133.89) rotate(-43.87)"/><path class="cls-9" d="M1227.89,674.44c7.82,70.27,70.49,130.82,140,135.25l-28.33-254.46C1270.05,550.8,1220.06,604.18,1227.89,674.44Z"/><path class="cls-10" d="M1272.51,679.42s-11.66,8.84-20.06-1.74C1252.45,677.68,1261.11,672.3,1272.51,679.42Z"/><path class="cls-10" d="M1285.77,710.68s-9.38,11.23-19.36,2.11C1266.41,712.79,1273.6,705.65,1285.77,710.68Z"/><path class="cls-10" d="M1306.48,735.15s-4.79,14.32-16.61,8.38C1289.87,743.53,1294,734,1306.48,735.15Z"/><path class="cls-10" d="M1328.36,754s6.41,15.7-5.09,18.42C1323.27,772.42,1319.63,761.36,1328.36,754Z"/><path class="cls-10" d="M1278.93,649.28s-12-12.6-20.11-4.63C1258.82,644.65,1267.71,652.81,1278.93,649.28Z"/><path class="cls-10" d="M1294.45,627.12s-8.06-15.14-18.73-10.64C1275.72,616.48,1282.05,626.64,1294.45,627.12Z"/><path class="cls-10" d="M1312.42,610.81s3-15.1-9.3-19.34C1303.12,591.47,1301.92,602.22,1312.42,610.81Z"/><path class="cls-9" d="M1494.66,691.45c-7.82-70.27-70.49-130.82-140-135.25L1383,810.65C1452.5,815.08,1502.48,761.71,1494.66,691.45Z"/><path class="cls-10" d="M1452.08,694.2s11.66-8.84,20.06,1.74C1472.14,695.94,1463.48,701.32,1452.08,694.2Z"/><path class="cls-10" d="M1438.82,662.94s9.38-11.23,19.36-2.11C1458.18,660.83,1451,668,1438.82,662.94Z"/><path class="cls-10" d="M1418.11,638.47s4.79-14.32,16.61-8.38C1434.72,630.09,1430.58,639.58,1418.11,638.47Z"/><path class="cls-10" d="M1396.23,619.62s-6.41-15.7,5.09-18.42C1401.32,601.2,1405,612.26,1396.23,619.62Z"/><path class="cls-10" d="M1445.66,724.34s12,12.6,20.11,4.63C1465.77,729,1456.88,720.81,1445.66,724.34Z"/><path class="cls-10" d="M1430.14,746.5s8.06,15.14,18.72,10.64C1448.86,757.14,1442.54,747,1430.14,746.5Z"/><path class="cls-10" d="M1412.17,762.81s-3,15.1,9.29,19.34C1421.46,782.15,1422.67,771.4,1412.17,762.81Z"/><ellipse class="cls-8" cx="764.63" cy="436.88" rx="147.87" ry="174.66" transform="translate(-16.29 843.94) rotate(-57.27)"/><ellipse class="cls-8" cx="777.96" cy="405.77" rx="147.87" ry="174.66" transform="translate(16.01 840.86) rotate(-57.27)"/><path class="cls-9" d="M646.3,429.33c23.9,66.54,98.9,110.91,167.52,99.12l-86.54-241C658.66,299.29,622.41,362.79,646.3,429.33Z"/><path class="cls-10" d="M690.86,423.83s-9.28,11.3-19.91,3C671,426.79,678.12,419.54,690.86,423.83Z"/><path class="cls-10" d="M711,451.17s-6.52,13.09-18.35,6.53C692.66,457.7,698,449.09,711,451.17Z"/><path class="cls-10" d="M736.82,470.17s-1.33,15-14.21,12C722.61,482.17,724.44,472,736.82,470.17Z"/><path class="cls-10" d="M762.48,483.43s9.88,13.79-.68,19.1C761.8,502.53,755.7,492.61,762.48,483.43Z"/><path class="cls-10" d="M690.13,393s-14.62-9.47-20.64.16C669.49,393.18,680,399.06,690.13,393Z"/><path class="cls-10" d="M700.08,367.86s-11.35-12.85-20.67-6C679.41,361.86,687.91,370.28,700.08,367.86Z"/><path class="cls-10" d="M713.79,347.84s-.6-15.39-13.53-16.66C700.26,331.18,701.58,341.92,713.79,347.84Z"/><path class="cls-9" d="M909.75,384c-23.89-66.54-98.89-110.92-167.51-99.12l86.54,241C897.39,514.08,933.65,450.58,909.75,384Z"/><path class="cls-10" d="M869,396.59s9.29-11.31,19.92-3C888.89,393.63,881.71,400.87,869,396.59Z"/><path class="cls-10" d="M848.83,369.25s6.52-13.1,18.34-6.54C867.17,362.71,861.83,371.32,848.83,369.25Z"/><path class="cls-10" d="M823,350.25s1.34-15,14.21-12C837.22,338.24,835.4,348.44,823,350.25Z"/><path class="cls-10" d="M797.36,337s-9.88-13.78.68-19.09C798,317.89,804.14,327.8,797.36,337Z"/><path class="cls-10" d="M869.71,427.4s14.62,9.46,20.63-.17C890.34,427.23,879.8,421.36,869.71,427.4Z"/><path class="cls-10" d="M859.75,452.55s11.35,12.85,20.68,6C880.43,458.56,871.92,450.14,859.75,452.55Z"/><path class="cls-10" d="M846.05,472.58s.6,15.38,13.52,16.65C859.57,489.23,858.26,478.5,846.05,472.58Z"/><path class="cls-11" d="M699.63,46.94c-25-12.63-69.29-14.79-121.76-6.34-6.09,64.65-20.87,136.45-88.5,183.19C363.62,310.68,91.13,578,205,876.25l45.25,92.38s57.66,25.87-137.66,131.85c12.75,106.6,91.51,146.48,91.51,146.48l194.46-44.22,3.5-142c-249.92-446.12,95.07-760.4,209.11-829S785.43,90.37,699.63,46.94Z"/><ellipse class="cls-1" cx="311.29" cy="1182.38" rx="144.54" ry="100.85" transform="translate(-624.55 395.53) rotate(-35.19)"/><ellipse class="cls-3" cx="512.02" cy="538.17" rx="20.93" ry="28.55" transform="translate(-57.63 1014.92) rotate(-86.35)"/><ellipse class="cls-3" cx="559.42" cy="561.49" rx="10.32" ry="7.57" transform="translate(-201.11 338.28) rotate(-28.75)"/><path class="cls-3" d="M898.56,590.37c2,3.67-.41,8.86-5.41,11.6s-10.68,2-12.69-1.67.41-8.86,5.41-11.6S896.55,586.7,898.56,590.37Z"/><ellipse class="cls-3" cx="745.52" cy="855.27" rx="10.32" ry="7.57" transform="translate(-319.47 464.02) rotate(-28.75)"/><path class="cls-3" d="M1031.94,813c2,3.66-.41,8.86-5.41,11.6s-10.68,2-12.69-1.67.41-8.86,5.41-11.61S1029.93,809.32,1031.94,813Z"/><path class="cls-3" d="M1184.85,866.63c2,3.67-.41,8.86-5.41,11.61s-10.68,2-12.69-1.68.41-8.85,5.41-11.6S1182.84,863,1184.85,866.63Z"/><path class="cls-3" d="M1523.6,847c2,3.66-.41,8.86-5.41,11.6s-10.68,2-12.69-1.67.41-8.86,5.41-11.6S1521.59,843.33,1523.6,847Z"/><ellipse class="cls-3" cx="1095.9" cy="606.38" rx="10.32" ry="7.57" transform="translate(-156.57 601.86) rotate(-28.75)"/><ellipse class="cls-3" cx="1089.97" cy="542.03" rx="20.93" ry="28.55" transform="matrix(0.06, -1, 1, 0.06, 479.69, 1595.31)"/><ellipse class="cls-3" cx="1114.93" cy="796.12" rx="20.93" ry="28.55" transform="translate(249.49 1858.15) rotate(-86.35)"/><ellipse class="cls-3" cx="934.23" cy="572.02" rx="20.93" ry="28.55" transform="translate(303.93 1467.96) rotate(-86.35)"/><ellipse class="cls-3" cx="1567.81" cy="877.88" rx="20.93" ry="28.55" transform="matrix(0.06, -1, 1, 0.06, 591.97, 2386.66)"/><ellipse class="cls-3" cx="1567.47" cy="707.19" rx="20.93" ry="28.55" transform="translate(762 2226.49) rotate(-86.35)"/><ellipse class="cls-3" cx="940.64" cy="307.31" rx="20.93" ry="28.55" transform="translate(574.12 1226.49) rotate(-86.35)"/><path class="cls-12" d="M139.92,405.1S260.71,139.86,529.26,49C529.26,49,283.33,200.37,139.92,405.1Z"/><path class="cls-6" d="M168.78,982.17s51-75.89,86.46-80.23C255.24,901.94,202.74,966.75,168.78,982.17Z"/><path class="cls-6" d="M146.79,947.79s51-75.89,86.46-80.23C233.25,867.56,180.75,932.37,146.79,947.79Z"/><path class="cls-6" d="M649.73,852.34s51-75.89,86.46-80.23C736.19,772.11,683.69,836.92,649.73,852.34Z"/></g></g></svg>