<svg xmlns="http://www.w3.org/2000/svg" viewBox="0 0 404.67 335"><defs><style>.cls-1,.cls-13{fill:#ba7e50;}.cls-1,.cls-11,.cls-13,.cls-2,.cls-4,.cls-7,.cls-8{stroke:#231f20;stroke-width:7px;}.cls-1,.cls-2,.cls-4,.cls-7{stroke-miterlimit:10;}.cls-2{fill:#ecc440;}.cls-3{fill:#c39135;}.cls-4{fill:#d79459;}.cls-5{fill:#a78b3f;}.cls-6{fill:#231f20;}.cls-7{fill:#29b473;}.cls-11,.cls-8{fill:#ec1c24;}.cls-8{stroke-miterlimit:10;}.cls-9{fill:#931b21;}.cls-10{fill:#faaf40;}.cls-11{stroke-miterlimit:10;}.cls-12{fill:#b5714f;}.cls-13{stroke-miterlimit:10;}.cls-14{fill:#fff;}</style></defs><title>resized</title><g id="Layer_2" data-name="Layer 2"><g id="Layer_1-2" data-name="Layer 1"><g id="Layer_1-2-2" data-name="Layer 1-2"><path class="cls-1" d="M68.42,257.15s182.66-35.72,224.51-22.48,94.29-2.73,94.29-2.73l-49.73-54.19L175.13,126.88,58.67,108,39.42,192Z"/><path class="cls-2" d="M88.74,233.84s32.33-15.06,46.76-5.57,13.21,8.1,8.88,25S171.85,284,173.31,261s8.2-46.94,23.49-40.68,17,20.87,13.13,40.4,28.2,29.49,27.78,5.08,17.9-66.09,38.19-56.22-3.07,17.6,3.31,30.54,23.08,17.3,21-1.94,10.43-40.86,22.77-19,11.09,83.11,3.87,93.86,15.83,28.7,24.8,10.82-8.76-57.91,3.22-71.65,30.67.66,41.5-5.24.86-34.22-6.61-50.52S271.36,53.75,133.13,38.27C133.13,38.27,8.81,92.24,88.74,233.84Z"/><path class="cls-3" d="M93.52,197.89s-17.21-68.2,12.17-105.78,45.08-50.78,45.08-50.78l-29.31-.71-65.84,75.9L62.18,186l9.58,15.61Z"/><path class="cls-4" d="M36.79,261.27S-26.52,173.7,21.48,89.76,128.42-2.69,146.14,6.36s12.23,27.16-11.33,41.48-101.6,77-50,169.93l-1.93,30.64Z"/><path class="cls-5" d="M78.65,202.63a253.39,253.39,0,0,0,12.92,26.12s30.24-13.21,44.68-3.72,15.18,9.76,10.84,26.62,22.68,28.94,24.13,6,12.08-46.25,27.37-40,19.91,21.63,16.06,41.16,19.52,25.65,19.11,1.23,21.86-62.73,42.69-54.08c22.5,9.36-1,19.93,5.33,32.86s19,12.44,17-6.81,14.29-36.44,26.63-14.55,11.39,83.34,4.17,94.09,14.13,24.4,19.6,8c6.32-19-8.22-57.48,3.76-71.21s32.13-2.5,43-8.4c2.41-1.31,7,1.79,7.61-1.37-7.88-5.23-13.56-8.18-13.56-8.18C304.41,170.18,122.44,194.76,78.65,202.63Z"/><path class="cls-6" d="M76.63,196.15S147,186.61,197.35,189L78.65,202.63Z"/><path class="cls-6" d="M261.63,192.57s86.8-7.44,139.73,42.48c0,0,3.31,11.75-2.25,10.39C399.11,245.44,374.69,201.7,261.63,192.57Z"/><path class="cls-5" d="M169.34,159.22s5.22-17.39,24.36-16.16,22.06,11.67,22.06,11.67l9,1.69S196.68,182.86,169.34,159.22Z"/><path class="cls-7" d="M167.47,153.72s10.76-26,26.94-21.34a101.83,101.83,0,0,1,26.71,12s-13.91,18-28.61,16.36a85,85,0,0,1-20.71-5.09C169,154.52,167.47,153.72,167.47,153.72Z"/><path class="cls-6" d="M195.86,148.14s-16.2-5-26.86,1.33l-1.53,4.24,7.5,3.21S183.37,147.19,195.86,148.14Z"/><path class="cls-5" d="M92.31,154.46s5.21-17.39,24.36-16.16S138.73,150,138.73,150l9,1.69S119.65,178.1,92.31,154.46Z"/><path class="cls-7" d="M136.28,135.23s-6.25,27.5-23,25.62A100.77,100.77,0,0,1,85,153.62s10.69-20.15,25.46-21a85.21,85.21,0,0,1,21.26,1.5C134.61,134.71,136.28,135.23,136.28,135.23Z"/><path class="cls-6" d="M109.23,145.56s16.81,2.2,26.24-5.88l.8-4.45-7.93-1.87S121.69,144.39,109.23,145.56Z"/><path class="cls-5" d="M215.11,91.79s4.09-13.64,19.11-12.67,17.29,9.14,17.29,9.14l7,1.32S236.55,110.32,215.11,91.79Z"/><path class="cls-7" d="M213.64,87.47s8.44-20.42,21.12-16.73a79.43,79.43,0,0,1,21,9.38S244.8,94.27,233.28,93a66.7,66.7,0,0,1-16.23-4C214.88,88.1,213.64,87.47,213.64,87.47Z"/><path class="cls-6" d="M235.9,83.11s-12.7-3.94-21.06,1l-1.2,3.33,5.89,2.5S226.11,82.35,235.9,83.11Z"/><path class="cls-7" d="M345.53,182.58s8.44-20.43,21.13-16.74a79.84,79.84,0,0,1,20.94,9.38s-10.91,14.15-22.43,12.83a66.44,66.44,0,0,1-16.24-4C346.76,183.21,345.53,182.58,345.53,182.58Z"/><path class="cls-6" d="M367.79,178.21s-12.7-4-21.06,1l-1.2,3.33,5.89,2.52S358,177.46,367.79,178.21Z"/><path class="cls-7" d="M340.06,178.13s-12.6-18.11-2.74-26.95a79.64,79.64,0,0,1,19-12.86s6,16.86-1.24,26a66.91,66.91,0,0,1-12,11.7C341.24,177.42,340.06,178.13,340.06,178.13Z"/><path class="cls-6" d="M348.29,156.81s-10.09,8.73-10.38,18.52l2.15,2.8,5.25-3.68S342.43,164.76,348.29,156.81Z"/><ellipse class="cls-8" cx="278.39" cy="149.26" rx="30.68" ry="36.26" transform="translate(-27.86 226.66) rotate(-42.38)"/><ellipse class="cls-8" cx="281.71" cy="142.53" rx="30.68" ry="36.26" transform="translate(-22.46 227.13) rotate(-42.38)"/><path class="cls-9" d="M254.12,140.94c1.61,14.64,14.56,27.26,28.92,28.18l-5.85-53C262.83,115.17,252.5,126.29,254.12,140.94Z"/><path class="cls-10" d="M263.34,142s-2.41,1.85-4.15-.36A4,4,0,0,1,263.34,142Z"/><path class="cls-10" d="M266.08,148.49s-1.94,2.34-4,.44A3.64,3.64,0,0,1,266.08,148.49Z"/><path class="cls-10" d="M270.35,153.59s-1,3-3.43,1.74A3.29,3.29,0,0,1,270.35,153.59Z"/><path class="cls-10" d="M274.88,157.52s1.32,3.27-1.06,3.84A3.74,3.74,0,0,1,274.88,157.52Z"/><path class="cls-10" d="M264.66,135.69s-2.48-2.62-4.15-1A4.5,4.5,0,0,0,264.66,135.69Z"/><path class="cls-10" d="M267.87,131.07s-1.67-3.15-3.87-2.21A5.07,5.07,0,0,0,267.87,131.07Z"/><path class="cls-10" d="M271.58,127.67s.62-3.14-1.92-4A4.88,4.88,0,0,0,271.58,127.67Z"/><path class="cls-9" d="M309.24,144.48c-1.62-14.64-14.57-27.26-28.93-28.19l5.86,53C300.53,170.25,310.85,159.12,309.24,144.48Z"/><path class="cls-10" d="M300.44,145.05s2.41-1.84,4.14.37A4,4,0,0,1,300.44,145.05Z"/><path class="cls-10" d="M297.7,138.54s1.94-2.34,4-.44A3.64,3.64,0,0,1,297.7,138.54Z"/><path class="cls-10" d="M293.42,133.44s1-3,3.43-1.75A3.3,3.3,0,0,1,293.42,133.44Z"/><path class="cls-10" d="M288.9,129.51s-1.33-3.27,1.05-3.84A3.73,3.73,0,0,1,288.9,129.51Z"/><path class="cls-10" d="M299.11,151.34s2.48,2.62,4.16,1A4.56,4.56,0,0,0,299.11,151.34Z"/><path class="cls-10" d="M295.91,156s1.66,3.16,3.86,2.22A5.07,5.07,0,0,0,295.91,156Z"/><path class="cls-10" d="M292.19,159.35s-.62,3.15,1.92,4A4.88,4.88,0,0,0,292.19,159.35Z"/><ellipse class="cls-11" cx="158.4" cy="91.43" rx="30.74" ry="36.18" transform="matrix(0.56, -0.83, 0.83, 0.56, -6.14, 171.28)"/><ellipse class="cls-11" cx="161.15" cy="84.95" rx="30.74" ry="36.18" transform="translate(0.43 170.72) rotate(-55.88)"/><path class="cls-9" d="M133.94,89.85c4.94,13.87,20.44,23.12,34.62,20.66L150.68,60.28C136.5,62.75,129,76,133.94,89.85Z"/><path class="cls-10" d="M143.15,88.71s-1.92,2.35-4.11.62A3.94,3.94,0,0,1,143.15,88.71Z"/><path class="cls-10" d="M147.31,94.4s-1.34,2.73-3.79,1.36A3.67,3.67,0,0,1,147.31,94.4Z"/><path class="cls-10" d="M152.65,98.36s-.28,3.13-2.94,2.5A3.33,3.33,0,0,1,152.65,98.36Z"/><path class="cls-10" d="M158,101.13s2,2.87-.14,4A3.75,3.75,0,0,1,158,101.13Z"/><path class="cls-10" d="M143,82.28s-3-2-4.26,0A4.47,4.47,0,0,0,143,82.28Z"/><path class="cls-10" d="M145.06,77s-2.35-2.68-4.27-1.25A5,5,0,0,0,145.06,77Z"/><path class="cls-10" d="M147.89,72.87s-.12-3.21-2.8-3.47A4.89,4.89,0,0,0,147.89,72.87Z"/><path class="cls-9" d="M188.38,80.4C183.44,66.54,168,57.29,153.77,59.75L171.65,110C185.83,107.51,193.32,94.28,188.38,80.4Z"/><path class="cls-10" d="M180,83s1.92-2.36,4.12-.63A4,4,0,0,1,180,83Z"/><path class="cls-10" d="M175.79,77.33s1.35-2.73,3.79-1.36A3.66,3.66,0,0,1,175.79,77.33Z"/><path class="cls-10" d="M170.46,73.37s.27-3.13,2.93-2.5A3.31,3.31,0,0,1,170.46,73.37Z"/><path class="cls-10" d="M165.16,70.61s-2-2.87.14-4A3.77,3.77,0,0,1,165.16,70.61Z"/><path class="cls-10" d="M180.11,89.45s3,2,4.26,0A4.52,4.52,0,0,0,180.11,89.45Z"/><path class="cls-10" d="M178.05,94.69s2.34,2.68,4.27,1.25A5,5,0,0,0,178.05,94.69Z"/><path class="cls-10" d="M175.22,98.87s.12,3.2,2.79,3.47A4.84,4.84,0,0,0,175.22,98.87Z"/><path class="cls-12" d="M145,10.16c-5.16-2.64-14.31-3.09-25.15-1.32-1.26,13.47-4.32,28.43-18.29,38.17-26,18.11-82.29,73.83-58.76,136l9.35,19.25S64,207.64,23.67,229.73c2.63,22.21,18.91,30.53,18.91,30.53L82.76,251l.72-29.6C31.84,128.47,103.12,63,126.69,48.67S162.69,19.21,145,10.16Z"/><ellipse class="cls-13" cx="64.71" cy="246.81" rx="29.95" ry="20.96" transform="translate(-132.34 84.72) rotate(-35.87)"/><ellipse class="cls-3" cx="106.2" cy="112.54" rx="4.36" ry="5.9" transform="translate(-13.05 211.14) rotate(-86.24)"/><ellipse class="cls-3" cx="115.99" cy="117.39" rx="2.14" ry="1.57" transform="translate(-42.73 72.21) rotate(-29.45)"/><path class="cls-3" d="M186.07,123.41a2,2,0,0,1-1.12,2.42,1.9,1.9,0,0,1-2.62-.35,2.24,2.24,0,0,1,3.74-2.07Z"/><ellipse class="cls-3" cx="154.45" cy="178.62" rx="2.14" ry="1.57" transform="translate(-67.87 99.03) rotate(-29.45)"/><path class="cls-3" d="M213.63,169.81a2,2,0,0,1-1.12,2.42,1.9,1.9,0,0,1-2.62-.35,1.94,1.94,0,0,1,1.12-2.42A1.91,1.91,0,0,1,213.63,169.81Z"/><path class="cls-3" d="M245.22,181a1.93,1.93,0,0,1-1.11,2.42,1.91,1.91,0,0,1-2.63-.35,2,2,0,0,1,1.12-2.42A1.91,1.91,0,0,1,245.22,181Z"/><path class="cls-3" d="M315.22,176.9a2,2,0,0,1-1.12,2.42,1.91,1.91,0,0,1-2.62-.35,1.93,1.93,0,0,1,1.12-2.42A1.9,1.9,0,0,1,315.22,176.9Z"/><ellipse class="cls-3" cx="226.84" cy="126.75" rx="2.14" ry="1.57" transform="translate(-33.01 127.92) rotate(-29.45)"/><ellipse class="cls-3" cx="225.03" cy="112.47" rx="4.37" ry="5.91" transform="translate(98.9 330.14) rotate(-86.47)"/><ellipse class="cls-3" cx="230.78" cy="166.3" rx="4.36" ry="5.9" transform="translate(49.72 385.7) rotate(-86.24)"/><ellipse class="cls-3" cx="193.45" cy="119.59" rx="4.36" ry="5.9" transform="translate(61.43 304.79) rotate(-86.24)"/><ellipse class="cls-3" cx="323.55" cy="182.01" rx="4.37" ry="5.91" transform="translate(121.94 493.72) rotate(-86.47)"/><ellipse class="cls-3" cx="324.3" cy="147.77" rx="4.36" ry="5.9" transform="translate(155.6 461.68) rotate(-86.24)"/><ellipse class="cls-3" cx="194.77" cy="64.42" rx="4.36" ry="5.9" transform="matrix(0.07, -1, 1, 0.07, 117.73, 254.56)"/><path class="cls-14" d="M29.31,84.8s25-55.28,80.45-74.21C109.76,10.59,59,42.13,29.31,84.8Z"/><path class="cls-6" d="M35.28,205.07s10.54-15.82,17.86-16.72C53.14,188.35,42.29,201.86,35.28,205.07Z"/><path class="cls-6" d="M30.73,197.9s10.54-15.81,17.87-16.72C48.6,181.18,37.75,194.69,30.73,197.9Z"/><path class="cls-6" d="M134.65,178s10.54-15.81,17.87-16.72C152.52,161.29,141.67,174.8,134.65,178Z"/></g></g></g></svg>